<svg xmlns="http://www.w3.org/2000/svg" viewBox="0 0 36 40" width="36" height="40">
  <!-- Background -->
  <rect width="36" height="40" rx="8" fill="#1B2A4A"/>
  <!-- Rings -->
  <circle cx="18" cy="27" r="12" stroke="#C9A84C" stroke-width="1.2" fill="none" opacity="0.5"/>
  <circle cx="18" cy="27" r="7" stroke="#C9A84C" stroke-width="0.8" stroke-dasharray="2 1.5" fill="none" opacity="0.45"/>
  <!-- Descending dove -->
  <g transform="translate(18,13) rotate(15)">
    <ellipse cx="0" cy="0" rx="4" ry="2.8" fill="#C9A84C"/>
    <circle cx="3.5" cy="-1.6" r="2.2" fill="#C9A84C"/>
    <path d="M5.5 -1.8 L7.5 -1.2 L5.5 -0.8" fill="#C9A84C"/>
    <circle cx="4.2" cy="-1.8" r="0.55" fill="#1B2A4A"/>
    <path d="M-1.5 -0.8 Q-8 -7 -10 -2.5 Q-7 0.8 -1.5 0.8Z" fill="#E8C97A" opacity="0.9"/>
    <path d="M1.5 -1.5 Q7 -8 10 -5 Q8 -0.8 2.5 0Z" fill="#E8C97A" opacity="0.9"/>
    <path d="M-4 1.5 Q-5.5 5 -7 4 Q-5.5 6.5 -4 5 Q-2.5 3.5 -3 2.5Z" fill="#C9A84C" opacity="0.75"/>
  </g>
  <!-- Centre dot -->
  <circle cx="18" cy="27" r="1.5" fill="#C9A84C" opacity="0.6"/>
</svg>
