<svg xmlns="http://www.w3.org/2000/svg" viewBox="0 0 40 46" width="40" height="46">
  <rect width="40" height="46" rx="8" fill="#1B2A4A"/>
  <!-- Open Bible -->
  <path d="M4 32 Q4 28 8 27 L20 25 L20 40 L8 42 Q4 42 4 38 Z" fill="#0d1f38" stroke="#C9A84C" stroke-width="1.2"/>
  <path d="M36 32 Q36 28 32 27 L20 25 L20 40 L32 42 Q36 42 36 38 Z" fill="#0d1f38" stroke="#C9A84C" stroke-width="1.2"/>
  <line x1="20" y1="25" x2="20" y2="40" stroke="#C9A84C" stroke-width="1"/>
  <line x1="8" y1="30" x2="17" y2="29.5" stroke="#C9A84C" stroke-width="0.5" opacity="0.5"/>
  <line x1="8" y1="32.5" x2="17" y2="32" stroke="#C9A84C" stroke-width="0.5" opacity="0.5"/>
  <line x1="23" y1="29.5" x2="32" y2="30" stroke="#C9A84C" stroke-width="0.5" opacity="0.5"/>
  <line x1="23" y1="32" x2="32" y2="32.5" stroke="#C9A84C" stroke-width="0.5" opacity="0.5"/>
  <!-- Dove -->
  <ellipse cx="20" cy="22" rx="5.5" ry="3.2" fill="#C9A84C" transform="rotate(-8 20 22)"/>
  <circle cx="25" cy="19.5" r="3" fill="#C9A84C"/>
  <path d="M27.5 19 L31 19.8 L27.5 20.5" fill="#C9A84C"/>
  <circle cx="26.2" cy="19.2" r="0.7" fill="#1B2A4A"/>
  <path d="M17 21 Q8 13 5 17 Q9 22 16 23 Z" fill="#E8C97A" opacity="0.95"/>
  <path d="M20 19.5 Q26 11 32 14 Q29 19 22 21 Z" fill="#E8C97A" opacity="0.95"/>
  <path d="M14 23 Q10 27 7 25 Q10 29 13 27 Q15 25 15 24 Z" fill="#C9A84C" opacity="0.8"/>
  <line x1="19" y1="25" x2="18" y2="27" stroke="#C9A84C" stroke-width="0.8" stroke-linecap="round"/>
  <line x1="21" y1="25" x2="22" y2="27" stroke="#C9A84C" stroke-width="0.8" stroke-linecap="round"/>
</svg>
